<svg xmlns="http://www.w3.org/2000/svg" xmlns:xlink="http://www.w3.org/1999/xlink" width="2000" zoomAndPan="magnify" viewBox="0 0 1500 1499.999933" height="2000" preserveAspectRatio="xMidYMid meet" version="1.0">
  <defs>
    <style>
      /* Asegura un color base por defecto para el logo (Modo Claro) */
      .logo-path, .logo-path path {
        fill: #000000 !important;
      }

      /* Si el sistema está en Modo Oscuro, cambia a Blanco */
      @media (prefers-color-scheme: dark) {
        .logo-path, .logo-path path {
          fill: #ffffff !important;
        }
      }
    </style>
  </defs>

  <g class="logo-path" fill-opacity="1">
    <g transform="translate(25.25109, 947.627826)">
      <g>
        <path d="M 42.25 -455 L 263.25 -455 C 291.851562 -455 317.742188 -450.664062 340.921875 -442 C 364.109375 -433.332031 383.929688 -421.414062 400.390625 -406.25 C 416.859375 -391.082031 429.535156 -373.421875 438.421875 -353.265625 C 447.304688 -333.117188 451.75 -311.78125 451.75 -289.25 C 451.75 -266.28125 447.304688 -244.828125 438.421875 -224.890625 C 429.535156 -204.960938 416.859375 -187.414062 400.390625 -172.25 C 383.929688 -157.082031 364.109375 -145.164062 340.921875 -136.5 C 317.742188 -127.832031 291.851562 -123.5 263.25 -123.5 L 162.5 -123.5 L 162.5 0 L 42.25 0 Z M 260 -234 C 282.96875 -234 300.082031 -239.085938 311.34375 -249.265625 C 322.613281 -259.453125 328.25 -272.78125 328.25 -289.25 C 328.25 -305.71875 322.613281 -319.039062 311.34375 -329.21875 C 300.082031 -339.40625 282.96875 -344.5 260 -344.5 L 162.5 -344.5 L 162.5 -234 Z M 260 -234 "/>
      </g>
    </g>
  </g>

  <g class="logo-path" fill-opacity="1">
    <g transform="translate(467.246684, 947.627826)">
      <g>
        <path d="M 123.5 -455 L 344.5 -455 L 468 0 L 344.5 0 L 321.75 -91 L 146.25 -91 L 123.5 0 L 0 0 Z M 295.75 -195 L 256.75 -344.5 L 211.25 -344.5 L 172.25 -195 Z M 295.75 -195 "/>
      </g>
    </g>
  </g>

  <g class="logo-path" fill-opacity="1">
    <g transform="translate(905.992341, 947.627826)">
      <g>
        <path d="M 276.25 13 C 238.976562 13 204.742188 6.828125 173.546875 -5.515625 C 142.347656 -17.867188 115.585938 -34.769531 93.265625 -56.21875 C 70.953125 -77.675781 53.617188 -103.03125 41.265625 -132.28125 C 28.921875 -161.53125 22.75 -193.269531 22.75 -227.5 C 22.75 -261.726562 28.921875 -293.46875 41.265625 -322.71875 C 53.617188 -351.96875 70.953125 -377.316406 93.265625 -398.765625 C 115.585938 -420.222656 142.347656 -437.125 173.546875 -449.46875 C 204.742188 -461.820312 238.976562 -468 276.25 -468 C 300.945312 -468 323.257812 -465.503906 343.1875 -460.515625 C 363.125 -455.535156 381 -448.925781 396.8125 -440.6875 C 412.632812 -432.457031 426.503906 -423.25 438.421875 -413.0625 C 450.335938 -402.882812 460.628906 -392.378906 469.296875 -381.546875 C 489.660156 -356.410156 504.394531 -327.8125 513.5 -295.75 L 390 -295.75 C 384.363281 -307.019531 376.347656 -317.203125 365.953125 -326.296875 C 357.285156 -334.097656 345.691406 -341.25 331.171875 -347.75 C 316.660156 -354.25 298.351562 -357.5 276.25 -357.5 C 257.613281 -357.5 240.492188 -354.359375 224.890625 -348.078125 C 209.296875 -341.796875 195.972656 -333.019531 184.921875 -321.75 C 173.867188 -310.476562 165.203125 -296.828125 158.921875 -280.796875 C 152.640625 -264.765625 149.5 -247 149.5 -227.5 C 149.5 -208 152.640625 -190.234375 158.921875 -174.203125 C 165.203125 -158.171875 173.867188 -144.519531 184.921875 -133.25 C 195.972656 -121.976562 209.296875 -113.203125 224.890625 -106.921875 C 240.492188 -100.640625 257.613281 -97.5 276.25 -97.5 C 299.21875 -97.5 317.957031 -100.859375 332.46875 -107.578125 C 346.988281 -114.296875 358.582031 -121.769531 367.25 -130 C 377.21875 -139.53125 384.800781 -150.363281 390 -162.5 L 328.25 -162.5 L 328.25 -253.5 L 565.5 -253.5 L 565.5 -162.5 L 514.15625 -162.5 C 503.75 -129.5625 488.144531 -100.3125 467.34375 -74.75 C 458.25 -63.476562 447.742188 -52.644531 435.828125 -42.25 C 423.910156 -31.851562 410.039062 -22.535156 394.21875 -14.296875 C 378.40625 -6.066406 360.75 0.535156 341.25 5.515625 C 321.75 10.503906 300.082031 13 276.25 13 Z M 276.25 13 "/>
      </g>
    </g>
  </g>
</svg>
